<svg width="135" height="32" viewBox="0 0 135 32" fill="none" xmlns="http://www.w3.org/2000/svg">
<path fill-rule="evenodd" clip-rule="evenodd" d="M86.4168 11.1018V23.1921H89.789V11.1018H86.4168ZM86.8205 9.04733C87.1794 9.37793 87.6095 9.54323 88.1108 9.54323C88.6122 9.54323 89.0396 9.37793 89.3932 9.04733C89.7521 8.71149 89.9315 8.31005 89.9315 7.84302C89.9315 7.38123 89.7521 6.98504 89.3932 6.65445C89.0396 6.3186 88.6122 6.15068 88.1108 6.15068C87.6095 6.15068 87.1794 6.3186 86.8205 6.65445C86.4669 6.98504 86.2901 7.38123 86.2901 7.84302C86.2901 8.31005 86.4669 8.71149 86.8205 9.04733ZM15.123 23.1921V11.1018H18.3923V13.2113H18.519C18.7406 12.4609 19.1127 11.8941 19.6351 11.5111C20.1576 11.1227 20.7592 10.9286 21.44 10.9286C21.6088 10.9286 21.7909 10.9391 21.9862 10.9601C22.1814 10.9811 22.353 11.0099 22.5007 11.0467V14.022C22.3424 13.9748 22.1234 13.9328 21.8437 13.8961C21.564 13.8593 21.308 13.841 21.0758 13.841C20.5798 13.841 20.1365 13.9486 19.7459 14.1637C19.3607 14.3736 19.0546 14.6675 18.8277 15.0453C18.606 15.4231 18.4952 15.8587 18.4952 16.3519V23.1921H15.123ZM29.172 23.4283C27.9423 23.4283 26.879 23.1685 25.9818 22.649C25.0899 22.1243 24.4012 21.3948 23.9157 20.4608C23.4302 19.5215 23.1874 18.4326 23.1874 17.1942C23.1874 15.9453 23.4302 14.8538 23.9157 13.9197C24.4012 12.9804 25.0899 12.251 25.9818 11.7315C26.879 11.2067 27.9423 10.9443 29.172 10.9443C30.4016 10.9443 31.4623 11.2067 32.3542 11.7315C33.2514 12.251 33.9427 12.9804 34.4282 13.9197C34.9137 14.8538 35.1565 15.9453 35.1565 17.1942C35.1565 18.4326 34.9137 19.5215 34.4282 20.4608C33.9427 21.3948 33.2514 22.1243 32.3542 22.649C31.4623 23.1685 30.4016 23.4283 29.172 23.4283ZM29.1878 20.8307C29.7472 20.8307 30.2142 20.6733 30.5889 20.3584C30.9636 20.0383 31.246 19.6028 31.4359 19.0518C31.6312 18.5008 31.7288 17.8737 31.7288 17.1706C31.7288 16.4674 31.6312 15.8403 31.4359 15.2893C31.246 14.7383 30.9636 14.3028 30.5889 13.9827C30.2142 13.6626 29.7472 13.5025 29.1878 13.5025C28.6231 13.5025 28.1482 13.6626 27.7629 13.9827C27.3829 14.3028 27.0953 14.7383 26.9001 15.2893C26.7101 15.8403 26.6151 16.4674 26.6151 17.1706C26.6151 17.8737 26.7101 18.5008 26.9001 19.0518C27.0953 19.6028 27.3829 20.0383 27.7629 20.3584C28.1482 20.6733 28.6231 20.8307 29.1878 20.8307ZM44.3787 14.7383L47.4659 14.5494C47.3182 13.4369 46.801 12.558 45.9144 11.9125C45.0331 11.2671 43.8245 10.9443 42.2888 10.9443C41.2492 10.9443 40.3415 11.0965 39.5657 11.4009C38.7952 11.7052 38.1962 12.1381 37.7688 12.6996C37.3466 13.2611 37.1355 13.9302 37.1355 14.7068C37.1355 15.6094 37.4231 16.3519 37.9983 16.9344C38.5789 17.5169 39.4628 17.9262 40.6502 18.1623L42.7559 18.5795C43.2836 18.6845 43.6741 18.8367 43.9275 19.0361C44.1808 19.2302 44.3101 19.4795 44.3153 19.7838C44.3101 20.1459 44.1254 20.4424 43.7612 20.6733C43.4024 20.8989 42.9274 21.0118 42.3363 21.0118C41.7347 21.0118 41.2413 20.8858 40.856 20.6339C40.4708 20.3768 40.228 20.0042 40.1278 19.5162L36.8109 19.6894C36.9745 20.8438 37.5313 21.7569 38.4812 22.4286C39.4364 23.095 40.7188 23.4283 42.3284 23.4283C43.3839 23.4283 44.3153 23.263 45.1228 22.9324C45.9355 22.5965 46.5741 22.1295 47.0385 21.5313C47.5081 20.9331 47.743 20.2378 47.743 19.4454C47.743 18.5743 47.4527 17.8711 46.8722 17.3359C46.2917 16.8006 45.4104 16.4123 44.2283 16.1709L42.0276 15.7301C41.4629 15.6094 41.0645 15.4494 40.8323 15.2499C40.6001 15.0505 40.484 14.8065 40.484 14.5179C40.484 14.1558 40.6634 13.8672 41.0223 13.6521C41.3811 13.4317 41.8218 13.3215 42.3443 13.3215C42.7348 13.3215 43.0699 13.3871 43.3496 13.5183C43.6346 13.6442 43.8641 13.8147 44.0383 14.0299C44.2124 14.2398 44.3259 14.4759 44.3787 14.7383ZM49.8665 27.726V11.1018H53.1912V13.1326H53.3416C53.4894 12.8072 53.7031 12.4766 53.9828 12.1408C54.2678 11.7997 54.6372 11.5163 55.091 11.2907C55.5502 11.0598 56.1201 10.9443 56.8009 10.9443C57.6875 10.9443 58.5055 11.1752 59.2549 11.637C60.0043 12.0935 60.6032 12.7836 61.0518 13.7072C61.5004 14.6255 61.7247 15.7773 61.7247 17.1627C61.7247 18.5113 61.5057 19.65 61.0676 20.5788C60.6349 21.5024 60.0438 22.203 59.2945 22.6805C58.5504 23.1528 57.7165 23.3889 56.793 23.3889C56.1386 23.3889 55.5818 23.2813 55.1227 23.0662C54.6689 22.851 54.2968 22.5808 54.0065 22.2554C53.7163 21.9248 53.4946 21.5916 53.3416 21.2558H53.2387V27.726H49.8665ZM53.1674 17.1469C53.1674 17.8659 53.2677 18.4929 53.4683 19.0282C53.6688 19.5634 53.959 19.9806 54.339 20.2797C54.719 20.5736 55.1808 20.7205 55.7243 20.7205C56.2732 20.7205 56.7376 20.571 57.1175 20.2719C57.4975 19.9675 57.7851 19.5477 57.9804 19.0124C58.1809 18.472 58.2812 17.8501 58.2812 17.1469C58.2812 16.449 58.1836 15.8351 57.9883 15.305C57.7931 14.775 57.5054 14.3605 57.1255 14.0614C56.7455 13.7623 56.2784 13.6127 55.7243 13.6127C55.1755 13.6127 54.7111 13.757 54.3311 14.0456C53.9564 14.3342 53.6688 14.7436 53.4683 15.2736C53.2677 15.8036 53.1674 16.428 53.1674 17.1469ZM66.2843 22.6726C67.1867 23.1764 68.2633 23.4283 69.5141 23.4283C70.5168 23.4283 71.4007 23.2761 72.1659 22.9717C72.9364 22.6621 73.5644 22.2318 74.0499 21.6808C74.5407 21.1246 74.8653 20.4739 75.0236 19.7287L71.9047 19.5241C71.7886 19.8284 71.6197 20.0856 71.3981 20.2955C71.1764 20.5054 70.9099 20.6628 70.5986 20.7678C70.2872 20.8727 69.9442 20.9252 69.5695 20.9252C69.0048 20.9252 68.5166 20.8071 68.105 20.571C67.6934 20.3348 67.3741 19.999 67.1472 19.5634C66.9255 19.1279 66.8147 18.611 66.8147 18.0128V18.0049H75.0949V17.084C75.0949 16.0554 74.9497 15.1581 74.6595 14.392C74.3692 13.6206 73.9629 12.9804 73.4404 12.4714C72.9232 11.9624 72.3163 11.5819 71.6197 11.33C70.9284 11.0729 70.1816 10.9443 69.3795 10.9443C68.1868 10.9443 67.1472 11.2067 66.2606 11.7315C65.3793 12.2562 64.6958 12.9883 64.2103 13.9276C63.7248 14.8669 63.482 15.9584 63.482 17.202C63.482 18.4772 63.7248 19.5818 64.2103 20.5159C64.6958 21.4447 65.3872 22.1636 66.2843 22.6726ZM66.8179 15.9269C66.8382 15.4927 66.9506 15.0965 67.1551 14.7383C67.3767 14.3447 67.6828 14.0325 68.0733 13.8016C68.4691 13.5655 68.923 13.4474 69.4349 13.4474C69.9257 13.4474 70.3558 13.555 70.7252 13.7701C71.0999 13.98 71.3928 14.2713 71.6039 14.6439C71.815 15.0164 71.9205 15.4441 71.9205 15.9269H66.8179ZM77.2955 23.1921V11.1018H80.5649V13.2113H80.6915C80.9131 12.4609 81.2852 11.8941 81.8077 11.5111C82.3301 11.1227 82.9317 10.9286 83.6125 10.9286C83.7814 10.9286 83.9635 10.9391 84.1587 10.9601C84.354 10.9811 84.5255 11.0099 84.6733 11.0467V14.022C84.515 13.9748 84.2959 13.9328 84.0162 13.8961C83.7365 13.8593 83.4806 13.841 83.2484 13.841C82.7523 13.841 82.309 13.9486 81.9185 14.1637C81.5333 14.3736 81.2272 14.6675 81.0002 15.0453C80.7786 15.4231 80.6678 15.8587 80.6678 16.3519V23.1921H77.2955ZM7.14958 7.08864H0.753418V14.1407C0.753418 11.9662 2.45141 10.8085 4.18106 10.8085H6.152V9.35691L9.75347 12.5514L6.152 15.6415L6.13617 14.1407H4.16523C2.35708 14.1407 0.753418 16.1105 0.753418 17.9826V23.2091H4.18106V17.9826H7.0625C8.30796 17.9826 9.36871 17.7543 10.2447 17.2978C11.1261 16.8412 11.7989 16.2037 12.2633 15.385C12.7277 14.5664 12.9599 13.6219 12.9599 12.5514C12.9599 11.4809 12.7304 10.5363 12.2713 9.71767C11.8174 8.8938 11.1577 8.25098 10.2922 7.78919C9.42676 7.32216 8.3792 7.08864 7.14958 7.08864Z" fill="#5653FE"/>
<path d="M95.4791 23.5285H94L96.2537 17H98.0325L100.283 23.5285H98.8039L97.1686 18.4919H97.1176L95.4791 23.5285ZM95.3867 20.9623H98.8804V22.0398H95.3867V20.9623Z" fill="#5653FE"/>
<path d="M103.028 23.6241C102.526 23.6241 102.095 23.5178 101.733 23.3053C101.374 23.0907 101.098 22.7932 100.905 22.4128C100.713 22.0324 100.618 21.5946 100.618 21.0994C100.618 20.5979 100.714 20.158 100.908 19.7797C101.103 19.3993 101.381 19.1028 101.74 18.8903C102.099 18.6757 102.526 18.5684 103.021 18.5684C103.448 18.5684 103.822 18.6459 104.143 18.8011C104.464 18.9562 104.718 19.174 104.905 19.4545C105.092 19.7351 105.195 20.0645 105.214 20.4427H103.933C103.897 20.1983 103.801 20.0018 103.646 19.853C103.493 19.7021 103.292 19.6267 103.044 19.6267C102.833 19.6267 102.649 19.6841 102.492 19.7988C102.337 19.9115 102.216 20.0762 102.129 20.2929C102.042 20.5097 101.998 20.7721 101.998 21.0803C101.998 21.3927 102.041 21.6583 102.126 21.8772C102.213 22.0961 102.335 22.2629 102.492 22.3777C102.649 22.4924 102.833 22.5498 103.044 22.5498C103.199 22.5498 103.338 22.518 103.461 22.4542C103.587 22.3904 103.69 22.298 103.77 22.1769C103.853 22.0536 103.907 21.9059 103.933 21.7338H105.214C105.193 22.1078 105.091 22.4372 104.908 22.722C104.728 23.0046 104.478 23.2256 104.159 23.385C103.841 23.5444 103.463 23.6241 103.028 23.6241Z" fill="#5653FE"/>
<path d="M107.48 23.6209C107.168 23.6209 106.889 23.5667 106.645 23.4583C106.401 23.3478 106.207 23.1852 106.065 22.9706C105.924 22.7538 105.854 22.4839 105.854 22.1609C105.854 21.8889 105.904 21.6605 106.004 21.4756C106.104 21.2907 106.24 21.1419 106.412 21.0293C106.584 20.9167 106.78 20.8316 106.999 20.7743C107.22 20.7169 107.451 20.6765 107.694 20.6531C107.978 20.6234 108.208 20.5958 108.382 20.5703C108.556 20.5426 108.683 20.5022 108.762 20.4491C108.84 20.396 108.879 20.3174 108.879 20.2132V20.1941C108.879 19.9922 108.816 19.836 108.688 19.7255C108.563 19.615 108.384 19.5597 108.153 19.5597C107.908 19.5597 107.714 19.6139 107.569 19.7223C107.425 19.8286 107.329 19.9625 107.282 20.124L106.026 20.022C106.09 19.7244 106.216 19.4673 106.403 19.2505C106.59 19.0316 106.831 18.8638 107.126 18.7469C107.424 18.6279 107.768 18.5684 108.159 18.5684C108.431 18.5684 108.691 18.6002 108.94 18.664C109.191 18.7277 109.413 18.8266 109.606 18.9605C109.802 19.0943 109.956 19.2665 110.069 19.4769C110.181 19.6851 110.237 19.9348 110.237 20.226V23.5285H108.95V22.8495H108.911C108.833 23.0025 108.728 23.1374 108.596 23.2543C108.464 23.3691 108.306 23.4594 108.121 23.5253C107.936 23.589 107.722 23.6209 107.48 23.6209ZM107.869 22.6837C108.069 22.6837 108.245 22.6444 108.398 22.5658C108.551 22.485 108.671 22.3766 108.758 22.2406C108.845 22.1046 108.889 21.9505 108.889 21.7784V21.2588C108.847 21.2864 108.788 21.3119 108.714 21.3353C108.641 21.3566 108.56 21.3767 108.468 21.3959C108.377 21.4129 108.286 21.4288 108.194 21.4437C108.103 21.4564 108.02 21.4681 107.945 21.4788C107.786 21.5021 107.647 21.5393 107.528 21.5903C107.409 21.6413 107.316 21.7104 107.251 21.7975C107.185 21.8825 107.152 21.9888 107.152 22.1163C107.152 22.3012 107.219 22.4425 107.353 22.5403C107.489 22.6359 107.661 22.6837 107.869 22.6837Z" fill="#5653FE"/>
<path d="M113.095 23.6082C112.723 23.6082 112.387 23.5125 112.085 23.3213C111.785 23.1279 111.547 22.8442 111.371 22.4701C111.196 22.094 111.109 21.6328 111.109 21.0867C111.109 20.5256 111.2 20.0592 111.38 19.6873C111.561 19.3132 111.801 19.0338 112.101 18.8489C112.402 18.6619 112.733 18.5684 113.092 18.5684C113.366 18.5684 113.595 18.6151 113.777 18.7086C113.962 18.8 114.111 18.9148 114.224 19.0529C114.338 19.1889 114.426 19.3228 114.485 19.4545H114.527V17H115.881V23.5285H114.542V22.7443H114.485C114.421 22.8803 114.331 23.0152 114.214 23.1491C114.099 23.2809 113.95 23.3903 113.765 23.4775C113.582 23.5646 113.359 23.6082 113.095 23.6082ZM113.526 22.5275C113.744 22.5275 113.929 22.468 114.08 22.349C114.233 22.2279 114.35 22.0589 114.431 21.8422C114.514 21.6254 114.555 21.3714 114.555 21.0803C114.555 20.7891 114.515 20.5362 114.434 20.3216C114.353 20.107 114.236 19.9412 114.083 19.8243C113.93 19.7074 113.744 19.649 113.526 19.649C113.302 19.649 113.114 19.7096 112.961 19.8307C112.808 19.9518 112.693 20.1197 112.614 20.3344C112.535 20.549 112.496 20.7976 112.496 21.0803C112.496 21.3651 112.535 21.6169 112.614 21.8358C112.695 22.0525 112.81 22.2226 112.961 22.3458C113.114 22.4669 113.302 22.5275 113.526 22.5275Z" fill="#5653FE"/>
<path d="M119.229 23.6241C118.726 23.6241 118.292 23.5221 117.929 23.3181C117.567 23.1119 117.289 22.8208 117.093 22.4446C116.898 22.0664 116.8 21.619 116.8 21.1026C116.8 20.5989 116.898 20.1569 117.093 19.7765C117.289 19.3961 117.564 19.0996 117.919 18.8871C118.276 18.6746 118.695 18.5684 119.175 18.5684C119.498 18.5684 119.799 18.6204 120.077 18.7246C120.358 18.8266 120.602 18.9806 120.81 19.1868C121.021 19.3929 121.184 19.6522 121.301 19.9646C121.418 20.2749 121.477 20.6383 121.477 21.0548V21.4277H117.342V20.5862H120.198C120.198 20.3907 120.156 20.2175 120.071 20.0666C119.986 19.9157 119.868 19.7978 119.717 19.7128C119.568 19.6256 119.395 19.5821 119.197 19.5821C118.991 19.5821 118.808 19.6299 118.649 19.7255C118.492 19.819 118.369 19.9455 118.279 20.1048C118.19 20.2621 118.144 20.4374 118.142 20.6308V21.4309C118.142 21.6732 118.187 21.8825 118.276 22.0589C118.367 22.2353 118.496 22.3713 118.662 22.4669C118.828 22.5626 119.024 22.6104 119.252 22.6104C119.402 22.6104 119.541 22.5891 119.666 22.5466C119.791 22.5041 119.899 22.4404 119.988 22.3554C120.077 22.2704 120.145 22.1662 120.192 22.043L121.448 22.1259C121.384 22.4276 121.253 22.6912 121.056 22.9164C120.86 23.1396 120.607 23.3138 120.297 23.4392C119.989 23.5625 119.633 23.6241 119.229 23.6241Z" fill="#5653FE"/>
<path d="M122.363 23.5285V18.6321H123.657V19.496H123.714C123.816 19.2091 123.986 18.9828 124.224 18.817C124.462 18.6512 124.747 18.5684 125.079 18.5684C125.414 18.5684 125.7 18.6523 125.936 18.8202C126.172 18.986 126.329 19.2112 126.408 19.496H126.459C126.559 19.2155 126.74 18.9913 127.001 18.8234C127.264 18.6534 127.576 18.5684 127.935 18.5684C128.392 18.5684 128.763 18.7139 129.047 19.0051C129.334 19.2941 129.478 19.7043 129.478 20.2355V23.5285H128.123V20.5033C128.123 20.2313 128.051 20.0273 127.906 19.8913C127.762 19.7553 127.581 19.6873 127.364 19.6873C127.118 19.6873 126.925 19.7659 126.787 19.9231C126.649 20.0783 126.58 20.2834 126.58 20.5384V23.5285H125.264V20.4746C125.264 20.2345 125.195 20.0432 125.056 19.9008C124.92 19.7584 124.741 19.6873 124.518 19.6873C124.367 19.6873 124.231 19.7255 124.11 19.802C123.991 19.8764 123.896 19.9816 123.826 20.1176C123.756 20.2515 123.721 20.4087 123.721 20.5894V23.5285H122.363Z" fill="#5653FE"/>
<path d="M131.213 25.3646C131.041 25.3646 130.88 25.3508 130.729 25.3231C130.58 25.2976 130.457 25.2647 130.359 25.2243L130.665 24.2106C130.825 24.2595 130.968 24.2861 131.096 24.2903C131.225 24.2946 131.337 24.2648 131.43 24.2011C131.526 24.1373 131.603 24.0289 131.663 23.8759L131.743 23.6687L129.986 18.6321H131.414L132.428 22.2279H132.479L133.502 18.6321H134.94L133.037 24.0576C132.945 24.3211 132.821 24.5507 132.664 24.7462C132.509 24.9438 132.312 25.0958 132.074 25.202C131.836 25.3104 131.549 25.3646 131.213 25.3646Z" fill="#5653FE"/>
</svg>
