<svg width="100" height="100" viewBox="0 0 100 100" fill="none" xmlns="http://www.w3.org/2000/svg">
<path fill-rule="evenodd" clip-rule="evenodd" d="M51.2281 27.4194H33.8711V46.6915C33.8711 40.7491 38.4789 37.5852 43.1726 37.5852H48.521V33.6182L58.2942 42.3481L48.521 50.793L48.4781 46.6915H43.1296C38.2229 46.6915 33.8711 52.0747 33.8711 57.1907V71.474H43.1726V57.1907H50.9918C54.3716 57.1907 57.2501 56.5669 59.6274 55.3192C62.019 54.0716 63.8449 52.3292 65.1052 50.0921C66.3654 47.8549 66.9955 45.2736 66.9955 42.3481C66.9955 39.4226 66.3726 36.8413 65.1266 34.6041C63.895 32.3526 62.1049 30.5959 59.7563 29.3339C57.4076 28.0576 54.5649 27.4194 51.2281 27.4194Z" fill="#5653FE"/>
</svg>
